<svg class="icon" style="width: 1em;height: 1em;vertical-align: middle;fill: currentColor;overflow: hidden;" viewBox="0 0 1024 1024" version="1.1" xmlns="http://www.w3.org/2000/svg" p-id="1834"><path d="M493.363 740.045c-149.248 0-270.694-121.447-270.694-270.695 0-16.947 13.773-30.72 30.72-30.72s30.72 13.773 30.72 30.72c0 115.354 93.85 209.255 209.254 209.255 16.947 0 30.72 13.773 30.72 30.72s-13.773 30.72-30.72 30.72z" fill="#F8B62D" p-id="1835"></path><path d="M952.576 911.667L795.238 757.3c71.527-74.957 115.61-176.384 115.61-287.949 0-230.195-187.29-417.484-417.485-417.484-230.195 0-417.485 187.29-417.485 417.484s187.29 417.485 417.485 417.485c96.563 0 185.447-33.024 256.256-88.269l159.949 156.928a30.602 30.602 0 0 0 21.504 8.807c7.936 0 15.923-3.072 21.914-9.216 11.878-12.083 11.673-31.54-0.41-43.418zM137.318 469.35c0-196.352 159.744-356.044 356.045-356.044 196.352 0 356.045 159.744 356.045 356.044S689.664 825.395 493.363 825.395c-196.352 0-356.045-159.744-356.045-356.045z" fill="#FFFFFF" p-id="1836"></path></svg>
